<svg width="20" height="18" viewBox="0 0 20 18" fill="none" xmlns="http://www.w3.org/2000/svg">
<path fill-rule="evenodd" clip-rule="evenodd" d="M5.24997 3.63104V2.46126C5.24997 1.59501 5.88371 0.859119 6.74037 0.73062L7.96029 0.547633C9.31251 0.3448 10.6874 0.344799 12.0397 0.547633L13.2596 0.73062C14.1162 0.859119 14.75 1.59501 14.75 2.46126V3.63104L16.464 3.76939C17.7764 3.87533 18.8469 4.86347 19.0574 6.16319C19.5226 9.03572 19.5226 11.9644 19.0574 14.8369C18.8469 16.1367 17.7764 17.1248 16.464 17.2307L14.5921 17.3818C11.5356 17.6285 8.46429 17.6285 5.40784 17.3818L3.53592 17.2307C2.22354 17.1248 1.153 16.1367 0.942519 14.8369C0.477331 11.9644 0.477331 9.03572 0.942519 6.16319C1.153 4.86347 2.22354 3.87533 3.53592 3.76939L5.24997 3.63104ZM8.1828 2.03104C9.38751 1.85033 10.6124 1.85033 11.8171 2.03104L13.0371 2.21402C13.1594 2.23238 13.25 2.33751 13.25 2.46126V3.52586C11.0851 3.40239 8.91488 3.40239 6.74997 3.52586V2.46126C6.74997 2.33751 6.8405 2.23238 6.96288 2.21402L8.1828 2.03104ZM5.52853 5.11343C8.50464 4.8732 11.4953 4.8732 14.4714 5.11343L16.3433 5.26453C16.9675 5.31491 17.4766 5.78485 17.5767 6.40298C17.639 6.78791 17.6925 7.1739 17.7372 7.56066C12.8596 9.96246 7.14035 9.96246 2.26274 7.56067C2.3074 7.17391 2.36089 6.78791 2.42323 6.40298C2.52333 5.78485 3.03246 5.31491 3.65661 5.26453L5.52853 5.11343ZM2.12886 9.15672C7.12826 11.4304 12.8717 11.4304 17.8711 9.15672C17.9664 10.9729 17.8683 12.7967 17.5767 14.5971C17.4766 15.2153 16.9675 15.6852 16.3433 15.7356L14.4714 15.8867C11.4953 16.1269 8.50465 16.1269 5.52853 15.8867L3.65661 15.7356C3.03246 15.6852 2.52333 15.2153 2.42323 14.5971C2.13166 12.7967 2.03353 10.9729 2.12886 9.15672Z" fill="black"/>
</svg>
