<svg width="18" height="18" viewBox="0 0 18 18" fill="none" xmlns="http://www.w3.org/2000/svg">
<path d="M13.75 8C13.75 8.41421 13.4142 8.75 13 8.75H5C4.58579 8.75 4.25 8.41421 4.25 8C4.25 7.58579 4.58579 7.25 5 7.25H13C13.4142 7.25 13.75 7.58579 13.75 8Z" fill="black"/>
<path fill-rule="evenodd" clip-rule="evenodd" d="M1.38558 5.1467L2.57431 1.8991C2.87389 1.08066 3.60048 0.494188 4.46371 0.374061C7.47342 -0.044771 10.5266 -0.0447719 13.5364 0.37406C14.3996 0.494189 15.1262 1.08067 15.4258 1.89912L16.6146 5.147C16.8369 5.49389 16.99 5.89042 17.0543 6.3179L17.1563 6.99574C17.5561 9.65437 17.5187 12.3605 17.0456 15.007C16.8359 16.1803 15.8723 17.0716 14.6862 17.1893L13.4558 17.3114C10.4925 17.6055 7.50743 17.6055 4.54417 17.3114L3.3137 17.1893C2.12763 17.0716 1.16407 16.1803 0.954342 15.007C0.48127 12.3605 0.443892 9.65437 0.843686 6.99574L0.945617 6.3179C1.00992 5.89029 1.16314 5.49365 1.38558 5.1467ZM4.67046 1.85974C7.543 1.46 10.4571 1.46 13.3296 1.85974C13.6437 1.90346 13.9081 2.11687 14.0172 2.4147L14.5234 3.79769C14.478 3.79108 14.4323 3.78549 14.3864 3.78092L13.4082 3.68383C10.4766 3.39286 7.52338 3.39286 4.59179 3.68384L3.6136 3.78092C3.56765 3.78548 3.52201 3.79107 3.4767 3.79767L3.98291 2.4147C4.09193 2.11687 4.35633 1.90346 4.67046 1.85974ZM2.68566 5.90098L2.70432 5.90781L2.72747 5.84456C2.97321 5.5287 3.34233 5.31522 3.76175 5.27359L4.73994 5.1765C7.573 4.89531 10.4269 4.89531 13.26 5.1765L14.2382 5.27359C14.6577 5.31523 15.0269 5.52879 15.2726 5.84476L15.2957 5.9078L15.3143 5.901C15.4454 6.08689 15.5354 6.30444 15.571 6.54095L15.6729 7.2188C16.0484 9.71581 16.0133 12.2574 15.569 14.7431C15.4774 15.2558 15.0563 15.6452 14.5381 15.6966L13.3076 15.8188C10.4429 16.1031 7.55705 16.1031 4.69232 15.8188L3.46186 15.6966C2.9436 15.6452 2.52258 15.2558 2.43094 14.7431C1.98662 12.2574 1.95152 9.71581 2.32701 7.2188L2.42894 6.54095C2.46451 6.30443 2.55453 6.08688 2.68566 5.90098Z" fill="black"/>
</svg>
