<svg width="16" height="20" viewBox="0 0 16 20" fill="none" xmlns="http://www.w3.org/2000/svg">
<path fill-rule="evenodd" clip-rule="evenodd" d="M13.9859 2.42367C10.0077 1.97906 5.99236 1.97906 2.01419 2.42367C1.74502 2.45376 1.6154 2.76941 1.78574 2.97998L5.30276 7.32753C6.56266 8.88494 7.25002 10.8275 7.25002 12.8307V15.7199L8.75002 16.8199V12.8307C8.75002 10.8275 9.43738 8.88494 10.6973 7.32753L14.2143 2.97998C14.3846 2.76941 14.255 2.45376 13.9859 2.42367ZM1.84758 0.932956C5.93648 0.475961 10.0636 0.475961 14.1525 0.932956C15.5994 1.09467 16.2962 2.79146 15.3805 3.92339L11.8635 8.27093C10.8195 9.56136 10.25 11.1709 10.25 12.8307V18.3C10.25 18.5826 10.0911 18.8413 9.83903 18.969C9.58692 19.0968 9.28441 19.0719 9.0565 18.9048L6.0565 16.7048C5.86384 16.5635 5.75002 16.3389 5.75002 16.1V12.8307C5.75002 11.1709 5.18049 9.56137 4.13658 8.27094L0.619559 3.92339C-0.296131 2.79146 0.400653 1.09467 1.84758 0.932956Z" fill="black"/>
</svg>
