<svg width="18" height="19" viewBox="0 0 18 19" fill="none" xmlns="http://www.w3.org/2000/svg">
<path fill-rule="evenodd" clip-rule="evenodd" d="M10.5578 2.53423C9.68719 1.69887 8.31269 1.69887 7.44212 2.53423L2.81568 6.97357C2.70233 7.08234 2.62608 7.22402 2.59774 7.37854C2.04361 10.4004 2.00271 13.494 2.47675 16.5295L2.58927 17.25H5.56573V11.0387C5.56573 10.6244 5.90152 10.2887 6.31573 10.2887H11.6842C12.0984 10.2887 12.4342 10.6244 12.4342 11.0387V17.25H15.4106L15.5231 16.5295C15.9972 13.494 15.9563 10.4004 15.4021 7.37854C15.3738 7.22402 15.2976 7.08234 15.1842 6.97357L10.5578 2.53423ZM6.40357 1.45191C7.85451 0.0596485 10.1454 0.0596485 11.5963 1.45191L16.2227 5.89125C16.5633 6.21804 16.7924 6.64373 16.8775 7.10799C17.4621 10.2956 17.5052 13.559 17.0052 16.7609L16.8244 17.9184C16.7496 18.3971 16.3374 18.75 15.8529 18.75H11.6842C11.2699 18.75 10.9342 18.4142 10.9342 18V11.7887H7.06573V18C7.06573 18.4142 6.72994 18.75 6.31573 18.75H2.147C1.66252 18.75 1.25023 18.3971 1.17548 17.9184L0.994715 16.7609C0.494667 13.559 0.537814 10.2956 1.12234 7.10799C1.20748 6.64373 1.43656 6.21804 1.77713 5.89125L6.40357 1.45191Z" fill="black"/>
</svg>
